<svg id="visual" viewBox="0 0 900 600" width="900" height="600" xmlns="http://www.w3.org/2000/svg" xmlns:xlink="http://www.w3.org/1999/xlink" version="1.1"><rect x="0" y="0" width="900" height="600" fill="#60A5FA"></rect><path d="M226 0L230.8 14.3C235.7 28.7 245.3 57.3 242.3 85.8C239.3 114.3 223.7 142.7 204 171.2C184.3 199.7 160.7 228.3 157.3 257C154 285.7 171 314.3 194.7 343C218.3 371.7 248.7 400.3 239.8 428.8C231 457.3 183 485.7 155.5 514.2C128 542.7 121 571.3 117.5 585.7L114 600L0 600L0 585.7C0 571.3 0 542.7 0 514.2C0 485.7 0 457.3 0 428.8C0 400.3 0 371.7 0 343C0 314.3 0 285.7 0 257C0 228.3 0 199.7 0 171.2C0 142.7 0 114.3 0 85.8C0 57.3 0 28.7 0 14.3L0 0Z" fill="#3B82F6" stroke-linecap="round" stroke-linejoin="miter"></path></svg>